<?xml version="1.0" encoding="UTF-8" standalone="no"?>
<svg width="30px" height="31px" viewBox="0 0 30 31" version="1.1" xmlns="http://www.w3.org/2000/svg" xmlns:xlink="http://www.w3.org/1999/xlink">
    <!-- Generator: Sketch 3.8.3 (29802) - http://www.bohemiancoding.com/sketch -->
    <title>g+</title>
    <desc>Created with Sketch.</desc>
    <defs>
        <ellipse id="path-1" cx="14.8703058" cy="15" rx="14.8664344" ry="14.6511628"></ellipse>
        <mask id="mask-2" maskContentUnits="userSpaceOnUse" maskUnits="objectBoundingBox" x="0" y="0" width="29.7328688" height="29.3023256" fill="white">
            <use xlink:href="#path-1"></use>
        </mask>
    </defs>
    <g id="Page-1" stroke="none" stroke-width="1" fill="none" fill-rule="evenodd">
        <g id="login_mobile" transform="translate(-212.000000, -3270.000000)">
            <g id="g+" transform="translate(212.000000, 3270.500000)">
                <use id="Oval-54-Copy-10" stroke="#74A3C7" mask="url(#mask-2)" stroke-width="2.4" xlink:href="#path-1"></use>
                <g id="Imported-Layers-Copy-15" transform="translate(11.153697, 10.728529)" fill="#74A3C7">
                    <path d="M5.98002323,0.446895516 C5.98002323,0.300611717 5.84157956,0.300611717 5.73101045,0.300611717 C5.30267131,0.300611717 4.86039489,0.287204851 4.41842818,0.287204851 C3.79651568,0.287204851 2.89802555,0.300611717 2.30429733,0.486520251 C1.26767325,0.80560365 0.54912892,1.58975631 0.54912892,2.66677451 C0.54912892,3.98273284 1.48881146,4.72696284 2.81533101,4.72696284 C2.81533101,5.6308835 2.96740225,5.1655163 3.13310105,5.6043677 C1.80658149,5.6043677 0.0102206736,6.04292116 0.0102206736,7.61152442 C0.0102206736,9.08717342 1.53000387,9.63208802 2.84320557,9.63208802 C4.36298877,9.63208802 5.98002323,8.92748275 5.98002323,7.25251836 C5.98002323,5.7506515 4.23848238,5.09907783 4.23848238,4.66052437 C4.23848238,4.18204824 5.57924894,3.96932597 5.57924894,2.33428424 C5.57924894,1.81588545 5.42686798,1.21764132 4.97127371,0.911964782 C5.27510647,0.872042116 5.98002323,0.872042116 5.98002323,0.446895516 L5.98002323,0.446895516 Z M1.93077816,2.01520085 C1.93077816,1.48339518 2.16585366,0.885448982 2.81533101,0.885448982 C3.68594657,0.885448982 4.11428571,2.01520085 4.11428571,2.70669717 C4.11428571,3.25161177 3.8931475,3.83644904 3.23004259,3.83644904 C2.35942702,3.83644904 1.93077816,2.70669717 1.93077816,2.01520085 L1.93077816,2.01520085 Z M4.87433217,7.29244103 C4.87433217,8.14303216 3.79651568,8.59529042 3.03646922,8.59529042 C2.29036005,8.59529042 1.32311266,8.22317542 1.32311266,7.37228636 C1.32311266,6.45525676 2.35942702,6.0962507 3.16097561,6.0962507 C3.8931475,6.0962507 4.87433217,6.45525676 4.87433217,7.29244103 L4.87433217,7.29244103 Z" id="Fill-1"></path>
                    <polyline id="Fill-2" points="9.46217576 1.81588545 9.46217576 0.486520251 8.53643051 0.486520251 8.53643051 1.81588545 7.15447154 1.81588545 7.15447154 2.69329031 8.53643051 2.69329031 8.53643051 4.02235757 9.46217576 4.02235757 9.46217576 2.69329031 10.8441347 2.69329031 10.8441347 1.81588545 9.46217576 1.81588545"></polyline>
                </g>
            </g>
        </g>
    </g>
</svg>