<?xml version="1.0" encoding="UTF-8" standalone="no"?>
<svg width="30px" height="31px" viewBox="0 0 30 31" version="1.1" xmlns="http://www.w3.org/2000/svg" xmlns:xlink="http://www.w3.org/1999/xlink">
    <!-- Generator: Sketch 3.8.3 (29802) - http://www.bohemiancoding.com/sketch -->
    <title>twitter</title>
    <desc>Created with Sketch.</desc>
    <defs>
        <ellipse id="path-1" cx="14.8683701" cy="15.4285714" rx="14.8664344" ry="15.0697674"></ellipse>
        <mask id="mask-2" maskContentUnits="userSpaceOnUse" maskUnits="objectBoundingBox" x="0" y="0" width="29.7328688" height="30.1395349" fill="white">
            <use xlink:href="#path-1"></use>
        </mask>
    </defs>
    <g id="Page-1" stroke="none" stroke-width="1" fill="none" fill-rule="evenodd">
        <g id="login_mobile" transform="translate(-124.000000, -3270.000000)">
            <g id="twitter" transform="translate(124.000000, 3270.500000)">
                <use id="Oval-54-Copy-8" stroke="#74A3C7" mask="url(#mask-2)" stroke-width="2.4" xlink:href="#path-1"></use>
                <path d="M19.0547757,12.904407 C19.4976539,12.6657158 19.8331221,12.2637687 19.9943875,11.811719 C19.5779857,12.0377438 19.1218694,12.2009997 18.638374,12.2891015 C18.2358122,11.8871544 17.671985,11.6611296 17.0946187,11.6611296 C15.9137105,11.6611296 14.9605597,12.5528441 14.9605597,13.6579171 C14.9605597,13.8085065 14.9740988,13.9593774 15.0141143,14.1099668 C13.3090935,14.0221464 11.7117836,13.2683549 10.6244456,12.0253589 C10.4367037,12.3265377 10.3425319,12.6783822 10.3425319,13.0299451 C10.3425319,13.6956348 10.6915392,14.3109403 11.2956828,14.6875546 C10.9466755,14.6751697 10.6244456,14.5873493 10.3292937,14.4364784 L10.3292937,14.4615297 C10.3022156,15.4033469 11.0405464,16.219626 12.0340136,16.4082146 C11.8459709,16.4585987 11.6582291,16.4833685 11.4701864,16.4833685 C11.3359991,16.4833685 11.2018118,16.4709836 11.0676246,16.4459323 C11.3495382,17.249545 12.1546618,17.8147479 13.0542581,17.8271328 C12.302689,18.3799507 11.3763155,18.6811296 10.4099264,18.6811296 C10.248661,18.6811296 10.0741574,18.6687446 9.91289199,18.6560782 C10.8795819,19.2336661 12.0204745,19.5477928 13.1749063,19.5477928 C15.631496,19.5477928 17.6987622,18.3045153 18.6922294,16.1945746 C19.0276976,15.4663974 19.2292794,14.6751697 19.2292794,13.8839419 C19.2292794,13.7961215 19.2292794,13.7080197 19.2157403,13.6201993 C19.6318412,13.3440718 19.9943875,12.9922274 20.2763011,12.5902803 C19.8869775,12.7535361 19.4844157,12.8666893 19.0547757,12.904407 Z" id="Imported-Layers-Copy-13" fill="#74A3C7"></path>
            </g>
        </g>
    </g>
</svg>