<?xml version="1.0" encoding="UTF-8" standalone="no"?>
<svg width="30px" height="31px" viewBox="0 0 30 31" version="1.1" xmlns="http://www.w3.org/2000/svg" xmlns:xlink="http://www.w3.org/1999/xlink">
    <!-- Generator: Sketch 3.8.3 (29802) - http://www.bohemiancoding.com/sketch -->
    <title>utube</title>
    <desc>Created with Sketch.</desc>
    <defs>
        <ellipse id="path-1" cx="15.1335656" cy="15" rx="14.8664344" ry="14.6511628"></ellipse>
        <mask id="mask-2" maskContentUnits="userSpaceOnUse" maskUnits="objectBoundingBox" x="0" y="0" width="29.7328688" height="29.3023256" fill="white">
            <use xlink:href="#path-1"></use>
        </mask>
    </defs>
    <g id="Page-1" stroke="none" stroke-width="1" fill="none" fill-rule="evenodd">
        <g id="login_mobile" transform="translate(-258.000000, -3270.000000)">
            <g id="utube" transform="translate(258.000000, 3270.500000)">
                <use id="Oval-54-Copy-11" stroke="#74A3C7" mask="url(#mask-2)" stroke-width="2.4" xlink:href="#path-1"></use>
                <g id="Imported-Layers-Copy-18" transform="translate(9.558653, 11.337209)" fill="#74A3C7">
                    <path d="M11.0301859,1.58209124 C11.0301859,1.58209124 10.9214015,0.864928033 10.5876152,0.549112948 C10.1642706,0.13460119 9.68974356,0.132553288 9.47213123,0.108284116 C7.91424007,0.00301581654 5.5773216,0.00301581654 5.5773216,0.00301581654 L5.57248238,0.00301581654 C5.57248238,0.00301581654 3.23561841,0.00301581654 1.67767276,0.108284116 C1.46004952,0.132553288 0.985686016,0.13460119 0.562188821,0.549112948 C0.228402492,0.864928033 0.119781608,1.58209124 0.119781608,1.58209124 C0.119781608,1.58209124 0.00844683772,2.4242682 0.00844683772,3.26645535 L0.00844683772,4.05599816 C0.00844683772,4.89816493 0.119781608,5.74034188 0.119781608,5.74034188 C0.119781608,5.74034188 0.228402492,6.45751528 0.562188821,6.77333037 C0.985686016,7.18783194 1.5419893,7.17472944 1.78974867,7.2181735 C2.68040504,7.29801113 5.57491289,7.32271841 5.57491289,7.32271841 C5.57491289,7.32271841 7.91424007,7.31941731 9.47213123,7.21414901 C9.68974356,7.18989003 10.1642706,7.18783194 10.5876152,6.77333037 C10.9214015,6.45751528 11.0301859,5.74034188 11.0301859,5.74034188 C11.0301859,5.74034188 11.141368,4.89816493 11.141368,4.05599816 L11.141368,3.26645535 C11.141368,2.4242682 11.0301859,1.58209124 11.0301859,1.58209124 L11.0301859,1.58209124 Z M4.42556531,5.01277614 L4.42505305,2.08865673 L7.43321719,3.55581072 L4.42556531,5.01277614 L4.42556531,5.01277614 Z" id="Fill-2"></path>
                </g>
            </g>
        </g>
    </g>
</svg>