<?xml version="1.0" encoding="UTF-8" standalone="no"?>
<svg width="30px" height="31px" viewBox="0 0 30 31" version="1.1" xmlns="http://www.w3.org/2000/svg" xmlns:xlink="http://www.w3.org/1999/xlink">
    <!-- Generator: Sketch 3.8.3 (29802) - http://www.bohemiancoding.com/sketch -->
    <title>vk</title>
    <desc>Created with Sketch.</desc>
    <defs>
        <ellipse id="path-1" cx="14.8664344" cy="15" rx="14.8664344" ry="14.6511628"></ellipse>
        <mask id="mask-2" maskContentUnits="userSpaceOnUse" maskUnits="objectBoundingBox" x="0" y="0" width="29.7328688" height="29.3023256" fill="white">
            <use xlink:href="#path-1"></use>
        </mask>
    </defs>
    <g id="Page-1" stroke="none" stroke-width="1" fill="none" fill-rule="evenodd">
        <g id="login_mobile" transform="translate(-36.000000, -3270.000000)">
            <g id="vk" transform="translate(36.000000, 3270.500000)">
                <use id="Oval-54-Copy-6" stroke="#74A3C7" mask="url(#mask-2)" stroke-width="2.4" xlink:href="#path-1"></use>
                <path d="M16.8997052,14.856093 L16.8997052,14.8167791 C17.5904226,14.5313256 17.9809524,13.8817907 17.9809524,13.1422326 C17.9809524,11.4802209 16.3913875,11.3372093 15.1014384,11.3372093 L12.0789779,11.3372093 L12.0789779,19.1276395 L15.3753239,19.1276395 C16.9391584,19.1276395 18.5024212,18.5430581 18.5024212,16.7386047 C18.5024212,15.7130233 17.8900384,15.0634884 16.8997052,14.856093 L16.8997052,14.856093 Z M14.2025909,12.7656163 L14.7892433,12.7656163 C15.3621728,12.7656163 15.9877066,12.8174651 15.9877066,13.5444884 C15.9877066,14.3495698 15.3753239,14.4145233 14.7372108,14.4145233 L14.2025909,14.4145233 L14.2025909,12.7656163 L14.2025909,12.7656163 Z M14.8801572,17.6992326 L14.2025909,17.6992326 L14.2025909,15.7517674 L15.1151613,15.7517674 C15.8053069,15.7517674 16.4828732,15.8292558 16.4828732,16.6992907 C16.4828732,17.6342791 15.6097561,17.6992326 14.8801572,17.6992326 L14.8801572,17.6992326 Z" id="Imported-Layers-Copy-11" fill="#74A3C7"></path>
            </g>
        </g>
    </g>
</svg>