<?xml version="1.0" encoding="UTF-8" standalone="no"?>
<svg width="30px" height="31px" viewBox="0 0 30 31" version="1.1" xmlns="http://www.w3.org/2000/svg" xmlns:xlink="http://www.w3.org/1999/xlink">
    <!-- Generator: Sketch 3.8.3 (29802) - http://www.bohemiancoding.com/sketch -->
    <title>ок</title>
    <desc>Created with Sketch.</desc>
    <defs>
        <ellipse id="path-1" cx="14.8723766" cy="15" rx="14.5207033" ry="14.6511628"></ellipse>
        <mask id="mask-2" maskContentUnits="userSpaceOnUse" maskUnits="objectBoundingBox" x="0" y="0" width="29.0414067" height="29.3023256" fill="white">
            <use xlink:href="#path-1"></use>
        </mask>
    </defs>
    <g id="Page-1" stroke="none" stroke-width="1" fill="none" fill-rule="evenodd">
        <g id="login_mobile" transform="translate(-168.000000, -3270.000000)">
            <g id="ок" transform="translate(168.000000, 3270.500000)">
                <use id="Oval-54-Copy-9" stroke="#74A3C7" mask="url(#mask-2)" stroke-width="2.4" xlink:href="#path-1"></use>
                <g id="Imported-Layers-Copy-14" transform="translate(11.847230, 10.116279)" fill="#74A3C7">
                    <path d="M4.90275414,5.52705477 C4.31520186,5.80725826 3.68754158,5.96565789 3.0332424,5.96565789 C2.33883522,5.96565789 1.80456073,5.79496864 1.19036955,5.52705477 C1.07004555,5.47816937 0.950020858,5.44157359 0.816527064,5.44157359 C0.362468576,5.44157359 0.0152649854,5.80725826 0.0152649854,6.20926561 C0.0152649854,6.97695762 1.33733245,7.26945073 1.97816252,7.39125459 L0.415746368,8.86546359 C0.268783469,9.0118467 0.175397676,9.20684211 0.175397676,9.40183752 C0.175397676,9.81613449 0.522601266,10.1695295 0.976659754,10.1695295 C1.19036955,10.1695295 1.40378003,10.096338 1.55104225,9.95022797 L3.0467115,8.5366478 L4.54238076,9.95022797 C4.68904435,10.096338 4.90275414,10.1695295 5.11646394,10.1695295 C5.57052243,10.1695295 5.91802533,9.80384486 5.91802533,9.40183752 C5.91802533,9.20684211 5.82434022,9.0118467 5.67737733,8.86546359 L4.11496117,7.39125459 C4.75609056,7.26945073 6.07815802,6.95237837 6.07815802,6.19697598 C6.07815802,5.79496864 5.73095443,5.42955707 5.27689594,5.42955707 C5.14340215,5.42955707 5.02307815,5.46615285 4.90275414,5.52705477" id="Fill-1"></path>
                    <path d="M3.0467115,0.202096083 C1.48399603,0.202096083 0.30889147,1.40839122 0.30889147,2.79766524 C0.30889147,4.18666616 1.48399603,5.39296129 3.0467115,5.39296129 C4.60882835,5.39296129 5.78423222,4.18666616 5.78423222,2.79766524 C5.78423222,1.40839122 4.60882835,0.202096083 3.0467115,0.202096083 L3.0467115,0.202096083 Z M3.0467115,3.86986689 C2.40558212,3.86986689 1.91141563,3.37008874 1.91141563,2.79766524 C1.91141563,2.22496864 2.40558212,1.72519048 3.0467115,1.72519048 C3.68754158,1.72519048 4.18170807,2.22496864 4.18170807,2.79766524 C4.18170807,3.37008874 3.68754158,3.86986689 3.0467115,3.86986689 L3.0467115,3.86986689 Z" id="Fill-2"></path>
                </g>
            </g>
        </g>
    </g>
</svg>